<?xml version="1.0" standalone="no"?>
<!DOCTYPE svg PUBLIC "-//W3C//DTD SVG 20010904//EN"
 "http://www.w3.org/TR/2001/REC-SVG-20010904/DTD/svg10.dtd">
<svg version="1.0" xmlns="http://www.w3.org/2000/svg"
 width="913.000000pt" height="913.000000pt" viewBox="0 0 913.000000 913.000000"
 preserveAspectRatio="xMidYMid meet">
<metadata>
Created by potrace 1.11, written by Peter Selinger 2001-2013
</metadata>
<g transform="translate(0.000000,913.000000) scale(0.100000,-0.100000)"
fill="#000000" stroke="none">
<path d="M2874 9104 c-521 -63 -954 -289 -1364 -710 -604 -621 -930 -1514
-930 -2549 1 -1353 559 -2769 1552 -3932 141 -164 536 -557 698 -693 553 -465
1140 -802 1752 -1004 1083 -358 2128 -262 2923 269 325 217 548 472 730 836
197 392 299 839 312 1374 31 1228 -453 2635 -1327 3859 -1039 1456 -2475 2427
-3779 2556 -140 14 -431 11 -567 -6z m711 -323 c657 -105 1347 -435 2010 -960
355 -281 729 -650 1043 -1028 196 -237 493 -655 638 -896 294 -491 513 -963
679 -1462 135 -406 216 -772 267 -1210 20 -170 17 -717 -5 -878 -32 -233 -91
-484 -149 -632 -11 -27 -19 -51 -19 -52 0 -2 -9 -24 -21 -50 -11 -27 -21 -54
-21 -60 0 -7 -4 -13 -9 -13 -4 0 -8 -6 -8 -13 0 -24 -139 -258 -211 -354 -38
-51 -100 -125 -137 -164 l-67 -71 -135 139 c-374 384 -674 759 -995 1243 -245
371 -376 594 -680 1165 -24 44 -138 271 -255 505 -227 455 -500 987 -583 1134
-27 50 -64 116 -80 146 -121 222 -305 523 -481 785 -112 168 -375 525 -444
605 -17 19 -74 87 -127 150 -148 175 -393 436 -549 584 -158 148 -391 354
-450 398 -92 67 -232 12 -251 -99 -10 -64 13 -103 152 -260 680 -765 1134
-1513 1728 -2848 54 -121 101 -222 104 -225 3 -3 7 -12 9 -20 5 -23 259 -592
384 -860 205 -438 565 -1129 601 -1152 7 -4 9 -8 5 -8 -8 0 -4 -8 137 -240
109 -179 304 -474 316 -478 5 -2 9 -8 9 -13 0 -38 447 -622 708 -927 63 -74
112 -136 109 -138 -12 -12 -218 -45 -350 -56 -180 -14 -406 -1 -614 37 -1043
191 -2161 945 -3048 2055 -791 990 -1317 2127 -1490 3220 -64 406 -71 873 -20
1220 94 632 350 1121 750 1434 253 198 565 323 915 366 127 15 487 4 635 -19z
m-2632 -2531 c7 -188 27 -368 63 -585 200 -1205 809 -2455 1712 -3512 145
-170 587 -617 742 -749 441 -378 847 -648 1328 -881 94 -46 172 -85 172 -87 0
-10 -151 28 -266 68 -396 135 -765 315 -1114 544 -576 377 -1080 854 -1508
1427 -649 869 -1053 1866 -1169 2887 -31 270 -23 885 14 1063 11 56 20 -2 26
-175z m3510 -937 c106 -169 273 -484 662 -1253 398 -787 512 -1005 682 -1300
425 -737 878 -1350 1382 -1872 72 -75 131 -140 131 -145 0 -12 -162 -103 -181
-102 -22 0 -324 355 -541 635 -488 629 -907 1318 -1296 2131 -142 296 -232
493 -467 1023 -206 464 -332 744 -396 878 -21 45 -39 84 -39 87 0 14 13 -3 63
-82z"/>
</g>
</svg>
